<svg width="554" height="214" viewBox="0 0 554 214" fill="none" xmlns="http://www.w3.org/2000/svg">
<path d="M316.819 100.557C344.119 101.665 402.868 126.713 481.819 167.557C481.819 167.557 584.319 228.057 542.819 209.557C501.319 191.057 405.388 195.343 316.819 126.057C296.154 145.604 283.583 147.895 260.319 144.557C234.451 124.774 217.74 121.354 184.819 126.057C160.492 109.112 145.85 102.288 115.819 100.557C68.9121 111.193 51.3191 36.5574 19.8191 34.0574C-11.6809 31.5574 4.81908 0.557434 4.81908 0.557434C69.6233 12.3713 100.583 24.7658 132.819 71.5574C155.54 74.2798 166.42 82.4299 184.819 100.557C225.6 92.6393 240.827 96.3254 260.319 111.057C294.036 99.4282 306.258 97.2182 316.819 100.557Z" fill="white" stroke="black"/>
</svg>
